<?xml version="1.0" encoding="utf-8"?>
<!-- Generator: Avocode 2.6.0 - http://avocode.com -->
<svg height="19" width="21" xmlns:xlink="http://www.w3.org/1999/xlink" xmlns="http://www.w3.org/2000/svg" viewBox="0 0 21 19">
    <path fill-opacity="0.99" fill="#353535" fill-rule="evenodd" d="M 17.06 18.99 L 6 18.99 Z C 4.34 18.99 3 17.64 3 15.99 L 3 15 Z L 5 15 Z L 5 17 Z L 18 17 Z L 18 2 Z L 5 2 Z L 5 3.97 Z L 3 3.97 Z L 3 3.01 Z C 3 1.35 4.34 0.01 6 0.01 L 17.06 0.01 Z C 18.72 0.01 20.06 1.35 20.06 3.01 L 20.06 15.99 Z C 20.06 17.64 18.72 18.99 17.06 18.99 Z M 6.02 4.16 L 13.05 9.46 Z L 6.02 14.76 Z L 6.02 12.01 Z L 0 12.01 Z L 0 6.9 Z L 6.02 6.9 Z L 6.02 4.16 Z Z" />
</svg>