<?xml version="1.0" encoding="utf-8"?>
<!-- Generator: Avocode 2.6.0 - http://avocode.com -->
<svg height="36" width="41" xmlns:xlink="http://www.w3.org/1999/xlink" xmlns="http://www.w3.org/2000/svg" viewBox="0 0 41 36">
    <defs>
        <filter height="200%" width="200%" y="-50%" x="-50%" id="filter-1">
            <feOffset result="shadowOffset1" in="SourceAlpha" dy="0.9" dx="0.5" />
            <feGaussianBlur result="shadowBlur1" in="shadowOffset1" stdDeviation="3" />
            <feColorMatrix result="shadowMatrix1" in="shadowBlur1" type="matrix" values="0 0 0 0 0.19215686274509805   0 0 0 0 0.19607843137254902   0 0 0 0 0.20784313725490197   0 0 0 0.5 0" />
            <feMerge>
                <feMergeNode in="shadowMatrix1" />
                <feMergeNode in="SourceGraphic" />
            </feMerge>
        </filter>
    </defs>
    <path filter="url(#filter-1)" fill="#ffffff" fill-rule="evenodd" d="M 1.64 15.63 C 1.64 15.63 5.33 15.63 5.33 15.63 C 5.33 15.63 5.33 1.13 5.33 1.13 C 5.33 1.13 14.21 1.13 14.21 1.13 C 18.12 1.13 20.24 1.32 21.47 1.63 C 25.1 2.59 27.88 5.86 27.88 10.95 C 27.88 16.77 24.15 19.82 20.79 20.54 C 19.24 20.86 17.44 21 14.53 21 C 14.53 21 11.49 21 11.49 21 C 11.49 21 11.49 23.72 11.49 23.72 C 11.49 23.72 26.51 23.72 26.51 23.72 C 26.51 23.72 26.51 29.09 26.51 29.09 C 26.51 29.09 11.49 29.09 11.49 29.09 C 11.49 29.09 11.49 33 11.49 33 C 11.49 33 5.33 33 5.33 33 C 5.33 33 5.33 29.09 5.33 29.09 C 5.33 29.09 1.64 29.09 1.64 29.09 C 1.64 29.09 1.64 23.72 1.64 23.72 C 1.64 23.72 5.33 23.72 5.33 23.72 C 5.33 23.72 5.33 21 5.33 21 C 5.33 21 1.64 21 1.64 21 C 1.64 21 1.64 15.63 1.64 15.63 Z M 11.49 6.54 C 11.49 6.54 11.49 15.59 11.49 15.59 C 11.49 15.59 13.85 15.59 13.85 15.59 C 16.4 15.59 17.65 15.41 18.51 15.09 C 20.15 14.5 21.24 12.91 21.24 11.04 C 21.24 8.73 19.7 7.13 17.65 6.77 C 16.88 6.63 15.76 6.54 13.44 6.54 C 13.44 6.54 11.49 6.54 11.49 6.54 Z" />
</svg>