<?xml version="1.0" encoding="utf-8"?>
<!-- Generator: Avocode 2.6.0 - http://avocode.com -->
<svg height="17" width="18" xmlns:xlink="http://www.w3.org/1999/xlink" xmlns="http://www.w3.org/2000/svg" viewBox="0 0 18 17">
    <path fill="#000000" fill-rule="evenodd" d="M 17.41 1.19 C 17.41 1.19 10.11 8.5 10.11 8.5 C 10.11 8.5 17.39 15.79 17.39 15.79 C 17.39 15.79 16.21 16.97 16.21 16.97 C 16.21 16.97 8.92 9.68 8.92 9.68 C 8.92 9.68 1.65 16.96 1.65 16.96 C 1.65 16.96 0.47 15.77 0.47 15.77 C 0.47 15.77 7.74 8.5 7.74 8.5 C 7.74 8.5 0.45 1.21 0.45 1.21 C 0.45 1.21 1.63 0.03 1.63 0.03 C 1.63 0.03 8.92 7.32 8.92 7.32 C 8.92 7.32 16.23 0.01 16.23 0.01 C 16.23 0.01 17.41 1.19 17.41 1.19 Z" />
</svg>